<svg xmlns="http://www.w3.org/2000/svg" width="50" height="35" fill="#FF0017" viewBox="0 0 50 34"><title>Nike SNKRS — веб-сайт</title><path d="M13.3.73c-2.1 2.34-3 3.73-3.48 5.39-.44 1.5-.2 2.76.67 3.62.7.7 1.44.95 2.72.95 1.04 0 1.93-.17 3.23-.61.72-.24 23.8-9.82 23.96-9.94a.03.03 0 000-.04c-.02-.01-5.08 1.3-11.26 2.92L17.38 6.07c-.82.17-2.15.15-2.73-.03a2.52 2.52 0 01-1.6-1.5c-.13-.31-.15-.48-.15-1.09 0-.9.17-1.5.72-2.63.2-.42.37-.78.36-.8-.02 0-.32.31-.68.7zM3.79 16.7c-2.18.5-3.67 2.44-3.77 4.93-.05 1.2.18 2.09.76 2.99.31.46 1.29 1.44 1.95 1.94 1.15.87 1.46 1.3 1.4 1.87-.05.37-.23.63-.6.8-.9.45-2.19-.1-3.24-1.39l-.23-.28v5.22l.42.13c.86.27 1.13.3 2.62.3 1.34 0 1.48-.01 1.92-.15a5.03 5.03 0 003.32-3.22l.12-.33v3.6h4.27l.02-3.91.02-3.92 1.5 3.9 1.51 3.9 1.84.02 1.83.01V16.75h-4.27l-.01 3.55-.02 3.55-1-3.55-1-3.55H8.46v4.81c0 4.8 0 4.82-.13 4.5A5.3 5.3 0 006.5 23.7l-1.15-.9c-.62-.5-.89-.88-.89-1.3 0-.26.03-.34.23-.55.26-.29.54-.4 1-.4.49.02 1.23.41 1.78.96l.44.43v-4.68l-.4-.17a5.75 5.75 0 00-2.36-.45c-.67-.01-1.09 0-1.35.06zm41.27.03a4.96 4.96 0 00-3.2 2.78l-.17.42a1.9 1.9 0 01-.24-.44c-.73-1.56-2.16-2.43-4.44-2.68-.46-.06-2.1-.07-5.51-.06l-4.86.02-1.07 2.28-1.07 2.28-.02-2.3-.01-2.29h-4.4v16.37h4.4v-6.87l1.33 3.44 1.33 3.43h8.32l.01-2.24V27.6a4 4 0 01.04-.94c.03.05.57 1.53 1.2 3.28l1.15 3.18 2.64.03 3.88.07c1.1.04 1.28.02 1.78-.1a4.94 4.94 0 003.28-2.59c.38-.75.51-1.36.55-2.36.08-2.15-.55-3.32-2.65-4.9-1.46-1.1-1.78-1.63-1.35-2.25.44-.62 1.47-.59 2.37.08a5.2 5.2 0 011.15 1.17c.04 0 .06-.88.06-2.5v-2.5l-.36-.16a5.86 5.86 0 00-2.56-.46 5.2 5.2 0 00-1.58.1zM31.04 27.77l-.02 3.38-1.48-3.59c-.83-1.97-1.5-3.6-1.5-3.64 0-.02.67-1.44 1.49-3.14l1.5-3.1.01 3.36v6.73zm5.6-7.21c.61.34.93 1.03.86 1.87-.1 1.09-.78 1.84-1.7 1.85h-.35V20.3l.43.03c.33.02.51.08.76.22zm6.2 4.87c.3.3.82.78 1.17 1.06l.93.74c.95.8.7 1.94-.48 2.15-.77.14-2.14-.61-2.77-1.52a.86.86 0 00-.23-.26c-.03 0-.06.62-.07 1.36l-.02 1.36-.96-1.99c-.53-1.1-.95-2-.94-2 .66-.33.84-.46 1.25-.86.38-.37.53-.59.75-1.02l.27-.54.28.47c.16.27.51.73.82 1.05z"/></svg>